<svg xmlns="http://www.w3.org/2000/svg" width="6454.95" height="1564" viewBox="0 0 6454.95 1564"><g transform="translate(220.0,220.0) scale(1)"><g transform="translate(0.000000,1124.000000) scale(0.100000,-0.100000)" fill="#FFFFFF" stroke="none">
<path d="M3660 6564 c-943 -740 -2144 -1681 -2669 -2092 -1091 -854 -994 -777
-961 -761 14 7 1229 680 2700 1497 1471 817 2679 1485 2685 1485 5 -1 1222
-674 2703 -1497 1481 -823 2695 -1496 2698 -1496 3 0 -286 226 -643 503 -356
276 -1188 921 -1848 1433 -660 512 -1589 1233 -2065 1603 -476 369 -869 670
-875 670 -5 0 -782 -606 -1725 -1345z"/>
<path d="M8663 4498 c-677 -1449 -1740 -2550 -3134 -3248 l-143 -72 -76 37
c-974 479 -1815 1172 -2448 2020 -276 370 -569 863 -758 1277 l-40 87 -459
-255 c-253 -140 -464 -259 -470 -265 -11 -11 153 -346 288 -589 492 -886 1138
-1659 1906 -2279 430 -347 903 -651 1418 -912 208 -104 574 -271 624 -284 29
-7 221 73 516 215 1475 712 2619 1779 3429 3198 120 210 346 664 336 673 -6 7
-828 466 -900 503 l-31 16 -58 -122z"/>
</g><g transform="translate(0.000000,1124.000000) scale(0.100000,-0.100000)" fill="#FFFFFF" stroke="none">
<path d="M2796 10394 c-1418 -464 -2581 -846 -2584 -848 -23 -23 -46 -641 -38
-1046 18 -1073 173 -2135 442 -3050 26 -85 50 -170 56 -187 5 -18 12 -33 16
-33 4 1 532 384 1173 853 642 469 1542 1127 2002 1462 459 336 834 611 833
613 -2 1 -733 -331 -1625 -738 -893 -408 -1628 -742 -1634 -743 -29 -5 -131
724 -167 1193 -16 209 -30 548 -30 727 0 159 0 162 23 168 12 4 945 309 2072
677 l2050 670 95 -30 c134 -44 3812 -1245 3943 -1288 l107 -36 0 -226 c0 -369
-31 -815 -85 -1242 -42 -326 -92 -620 -105 -620 -5 0 -743 335 -1641 745 -898
410 -1634 744 -1635 742 -1 -1 902 -663 2008 -1470 1106 -807 2013 -1466 2015
-1463 11 11 97 309 158 551 170 670 274 1316 331 2075 31 417 30 1272 -3 1631
l-6 66 -2591 847 c-1425 465 -2593 846 -2596 845 -3 -1 -1165 -381 -2584 -845z"/>
<path d="M5195 5424 c-425 -76 -798 -353 -992 -737 -52 -105 -110 -289 -127
-408 -43 -289 0 -564 129 -824 191 -386 527 -645 958 -737 145 -31 399 -31
544 0 266 57 487 172 674 350 173 164 307 380 372 597 l15 51 -82 2 c-363 8
-694 295 -757 657 -17 97 -7 272 21 360 47 151 157 315 264 394 25 19 46 37
46 41 0 3 -28 24 -62 47 -152 99 -353 178 -527 207 -118 20 -365 20 -476 0z
m288 -1001 c26 -8 69 -31 96 -51 136 -104 190 -256 142 -408 -67 -218 -306
-332 -505 -241 -72 33 -159 116 -191 182 -107 217 23 478 265 531 61 14 121
10 193 -13z"/>
</g></g><g transform="translate(1482.0,406.0) scale(1.15)"><g transform="translate(0.000000,654.000000) scale(0.100000,-0.100000)" fill="#FFFFFF" stroke="none">
<path d="M6085 6529 c-222 -28 -422 -124 -558 -268 -128 -136 -195 -295 -204
-485 -21 -425 249 -745 700 -831 104 -20 340 -20 444 0 383 73 637 317 693
667 15 95 8 270 -14 353 -40 144 -139 290 -257 380 -199 150 -507 221 -804
184z"/>
<path d="M2320 5813 c-291 -20 -527 -54 -736 -108 -402 -104 -742 -282 -993
-520 -269 -256 -438 -594 -481 -967 -18 -150 -8 -432 20 -560 106 -500 428
-842 1019 -1083 230 -93 521 -176 986 -280 503 -113 687 -166 851 -246 128
-62 211 -135 255 -224 30 -61 31 -69 27 -152 -5 -99 -24 -146 -86 -215 -81
-90 -229 -157 -429 -194 -120 -22 -494 -30 -660 -15 -517 49 -1077 233 -1496
492 l-78 49 -19 -43 c-10 -23 -127 -285 -259 -582 -162 -364 -237 -543 -230
-551 17 -20 170 -110 294 -172 454 -226 1044 -374 1685 -423 228 -17 722 -6
915 20 380 52 650 129 930 265 533 260 861 663 967 1189 30 149 33 478 5 627
-111 592 -525 973 -1322 1215 -186 56 -348 96 -768 189 -626 139 -822 210
-955 343 -90 90 -119 192 -88 313 54 210 243 336 591 392 121 19 492 16 640
-6 363 -53 676 -151 1044 -327 90 -44 165 -78 167 -77 4 5 476 1141 481 1159
4 13 -24 31 -114 77 -451 230 -1005 372 -1608 411 -145 10 -442 12 -555 4z"/>
<path d="M8160 4850 l0 -560 -315 0 -315 0 0 -570 0 -570 314 0 315 0 4 -847
c4 -921 4 -921 63 -1158 151 -598 562 -950 1244 -1066 177 -30 569 -38 764
-15 152 17 325 54 444 92 97 32 281 119 287 136 3 8 -78 249 -180 537 -102
288 -185 525 -185 527 0 2 -21 -9 -48 -25 -170 -100 -425 -138 -577 -86 -123
42 -224 146 -267 273 l-23 67 -3 783 -3 782 496 0 495 0 0 570 0 570 -495 0
-495 0 0 560 0 560 -760 0 -760 0 0 -560z"/>
<path d="M13355 4514 c-265 -21 -465 -61 -692 -136 -731 -241 -1260 -799
-1437 -1517 -50 -200 -66 -342 -66 -571 0 -384 70 -690 230 -1010 294 -586
857 -998 1585 -1159 248 -55 360 -65 720 -65 357 -1 457 7 685 54 372 77 687
221 945 431 86 69 217 199 213 210 -4 9 -789 829 -795 829 -2 0 -34 -24 -71
-54 -251 -201 -480 -292 -803 -316 -340 -26 -650 51 -867 217 -86 66 -138 122
-202 220 -47 71 -110 207 -110 237 0 14 150 16 1569 16 l1569 0 9 98 c13 149
10 504 -5 617 -63 469 -233 857 -515 1175 -338 381 -845 633 -1417 705 -123
15 -448 27 -545 19z m332 -1085 c377 -52 649 -310 737 -701 l6 -28 -886 0
-886 0 8 32 c29 134 102 286 188 393 105 130 224 213 383 264 152 49 293 62
450 40z"/>
<path d="M5490 2285 l0 -2165 755 0 755 0 0 2165 0 2165 -755 0 -755 0 0
-2165z"/>
</g><g transform="translate(0.000000,654.000000) scale(0.100000,-0.100000)" fill="#FFFFFF" stroke="none">
<path d="M23573 6260 c-119 -31 -199 -76 -283 -160 -124 -122 -173 -243 -173
-420 0 -60 6 -117 17 -155 86 -296 371 -472 702 -434 253 28 443 174 520 399
35 101 44 257 20 350 -54 213 -210 362 -440 420 -105 26 -263 26 -363 0z"/>
<path d="M29994 6260 c-219 -57 -387 -218 -440 -421 -23 -85 -22 -235 0 -314
86 -295 371 -472 701 -434 118 13 207 44 295 104 167 113 259 294 260 507 0
102 -14 167 -57 257 -69 145 -214 255 -397 301 -104 26 -263 26 -362 0z"/>
<path d="M16833 5658 c13 -29 563 -1287 1222 -2796 l1199 -2742 515 2 515 3
1212 2780 c667 1529 1213 2786 1213 2793 1 9 -109 12 -516 12 l-518 0 -935
-2150 c-514 -1182 -937 -2150 -940 -2150 -3 0 -422 967 -931 2148 l-926 2147
-567 3 -566 2 23 -52z"/>
<path d="M26781 4419 c-897 -79 -1482 -505 -1570 -1143 -15 -108 -14 -283 4
-396 55 -364 247 -613 608 -785 252 -121 452 -169 1163 -284 489 -79 683 -150
785 -285 48 -63 63 -118 57 -209 -19 -290 -312 -436 -873 -437 -332 0 -636 52
-965 165 -145 51 -379 158 -474 219 -32 21 -62 34 -66 29 -12 -13 -382 -754
-378 -757 25 -21 141 -87 226 -130 643 -322 1572 -431 2302 -270 635 141 1051
476 1170 945 82 322 25 697 -144 932 -87 123 -238 247 -394 326 -239 120 -477
183 -1087 286 -552 93 -740 153 -866 278 -75 74 -104 141 -103 243 0 71 4 90
32 146 82 167 274 271 579 314 163 22 526 15 698 -15 254 -44 437 -103 653
-211 l153 -77 187 371 c103 204 188 376 190 383 4 15 -143 90 -282 144 -243
95 -585 174 -911 209 -137 15 -567 21 -694 9z"/>
<path d="M33640 4420 c-929 -96 -1628 -624 -1899 -1437 -77 -230 -111 -456
-111 -733 0 -379 68 -689 219 -997 115 -233 231 -393 417 -573 162 -157 313
-264 514 -365 655 -329 1530 -337 2195 -21 566 269 969 759 1121 1361 56 224
68 331 68 595 0 175 -4 264 -17 349 -153 978 -841 1649 -1851 1802 -149 23
-515 33 -656 19z m535 -864 c448 -101 774 -396 915 -827 54 -165 65 -243 65
-479 0 -236 -11 -314 -65 -479 -126 -385 -409 -671 -782 -790 -313 -99 -676
-79 -967 55 -174 80 -361 238 -469 397 -159 233 -235 496 -235 817 0 263 40
445 143 655 175 357 488 591 881 659 110 20 414 15 514 -8z"/>
<path d="M39300 4419 c-459 -44 -842 -207 -1121 -478 l-99 -96 0 268 0 267
-475 0 -475 0 0 -2130 0 -2130 500 0 500 0 0 1153 c0 741 4 1183 10 1237 79
640 479 1017 1108 1047 225 10 409 -25 582 -109 94 -46 116 -62 205 -152 117
-118 167 -199 219 -356 73 -220 69 -133 73 -1547 l4 -1273 500 0 500 0 -4
1353 c-3 1212 -5 1364 -20 1467 -66 440 -216 769 -467 1020 -263 263 -625 420
-1065 460 -126 11 -350 11 -475 -1z"/>
<path d="M23250 2250 l0 -2130 500 0 500 0 0 2130 0 2130 -500 0 -500 0 0
-2130z"/>
<path d="M29670 2250 l0 -2130 500 0 500 0 0 2130 0 2130 -500 0 -500 0 0
-2130z"/>
</g></g></svg>